<?xml version="1.0" encoding="UTF-8"?>
<svg width="140pt" height="140pt" version="1.0" viewBox="0 0 140 140" xmlns="http://www.w3.org/2000/svg">
 <g transform="matrix(.1 0 0 -.1 -7.44 156)">
  <path d="m1306 1405c-45.7 5.69-71.1-38.3-147-95.6l-71.9 49.6c-88.1 66.7-426-49.7-515-141-90.1-77.6-225-90.6-437-239-28-23-28-53 0-76 12-9 43-39 70-65l47-48c95.8-23.3 20.7-33.7 40.8-72.2 0-15 122-113 141-123 53-27 79.6-47.7 79.6-160 0-80 3-104 16-115 12-10 101-12 421-11 462 1 339-23.5 320 105-24.3 157-74 291-49.8 427-11.8 69.6 159 24.3 217 213 21.9 93.9 5.21 333-132 350z" fill="#fff" stroke="#000" stroke-width="40"/>
  <path transform="matrix(7.5,0,0,-7.5,0,1600)" d="m49 66a47.2 53.1 0 0 0-2.46 0.551c-8.18 3.81-17.3 8.42-28.4 16.2-3.73 3.07-3.73 7.07 0 10.1 1.6 1.2 5.73 5.2 9.33 8.67l6.27 6.4c12.8 3.1 2.76 4.5 5.44 9.63 0 2 16.2 15.1 18.8 16.4 7.07 3.6 10.6 6.36 10.6 21.3 0 5.63 0.152 9.04 0.512 11.4a47.2 53.1 0 0 0 27.2-47.5 47.2 53.1 0 0 0-47.2-53.1z" display="none" fill="none" stroke="#000" stroke-width="1.46"/>
  <path d="m493 831c-94.4-33.9-101-32.1-244-40.5l44.7-72.1c67.9-20.3 238 104 200 113z"/>
  <path d="m97.8 932c18.6-33.2 49.4-61 80.9-46.9-10.1 37-27.1 72.7 5 117-44.6 17.1-97.1-29-85.9-70.4z" fill="#8ed9ea" stroke="#8ed9ea" stroke-width="26.8"/>
  <ellipse transform="matrix(.994 -.107 -.122 -.993 0 0)" cx="1129" cy="-1287" rx="99.8" ry="155" fill="#8ed9ea" stroke="#040607" stroke-width="19.8"/>
  <g transform="matrix(2.53,-6.91,7.08,3.69,57.9,1310)">
   <ellipse cx="67.9" cy="57.5" rx="11" ry="10.2" stroke="#000" stroke-dasharray="0.219031, 0.109515" stroke-width=".11"/>
   <path d="m64.4 47.8c-5.94 1.6-8.07 5.76-7.67 10.2 0.797 0.55 1.66 0.588 3.17 0.21 3.61-1.58 4.28-1.68 5.76-5.66 0.112-1.71-0.34-3.4-1.27-4.71z" fill="#fefdfd"/>
  </g>
 </g>
</svg>
