<?xml version="1.0" encoding="UTF-8"?>
<svg width="850pt" height="850pt" version="1.0" viewBox="0 0 850 850" xmlns="http://www.w3.org/2000/svg">
 <metadata>Created by potrace 1.16, written by Peter Selinger 2001-2019</metadata>
 <circle cx="427" cy="425" r="425" fill="#8ed9ea" stroke-width="3.84"/>
 <g transform="matrix(.1 0 0 -.1 -1682 2638)">
  <path d="m21930 26444c-90-24-161-65-231-134-100-100-149-217-149-355 0-124 38-226 122-327l49-59-59-92c-55-87-124-206-308-532-43-77-128-214-189-305-103-153-406-579-458-643l-22-27-50 16c-35 12-86 17-170 17-107 0-130-3-205-28-50-17-117-51-163-82l-79-52-71 56c-40 31-157 129-262 218-104 88-226 190-270 225-125 100-634 529-809 681-4 4 3 27 17 51 126 216 52 513-165 658-248 166-595 74-726-193-43-86-55-154-50-263 4-80 10-103 41-169 67-140 202-252 346-285 75-18 222-8 289 19l52 21 163-117c210-150 296-217 497-388 91-77 201-169 245-205 44-35 148-121 230-190 83-69 194-161 247-203l96-78-28-62c-37-78-60-167-60-229 0-26-3-48-6-48-10 0-1277-185-1824-266-278-41-539-84-580-95-245-66-422-252-466-489-26-134-15-217 61-495 273-990 356-1309 439-1685 56-254 67-325 106-675 62-565 118-821 222-1029 77-155 190-286 246-286 71 0 97 82 89 279-7 164-34 314-121 671-35 146-74 314-85 373-65 335-301 2153-301 2313 0 116 19 204 61 289 64 130 190 235 354 294 53 19 842 201 2e3 462 2104 474 1954 439 2337 537 454 117 625 142 975 142 219 1 309 12 418 54 179 68 217 151 95 209-105 51-228 44-548-33-196-46-1011-212-1330-269-314-57-712-112-777-109l-54 3-24 59c-30 74-79 148-139 209l-47 49 100 156c55 87 145 222 200 302 203 292 338 498 401 614 64 116 163 279 273 449l57 87 77-6c230-19 445 121 524 342 31 86 32 226 1 315-87 252-352 399-602 333z"/>
  <path d="m22834 23095c-87-19-159-59-225-124-138-139-195-375-186-771 5-241 25-383 82-580 99-346 230-502 330-394 77 83 50 307-80 659-83 223-105 309-112 430-12 221 79 401 242 481 52 25 71 29 140 28 331-3 474-326 365-826-90-413-368-849-725-1137-232-187-481-316-850-439-195-65-287-85-412-85-93-1-106 1-159 28-49 25-63 39-86 84-24 45-28 65-28 130 0 170 82 342 233 493 87 87 277 230 405 304 216 126 322 207 322 249 0 8-11 22-25 31-28 18-51 17-235-11-69-11-148-15-230-13-111 3-132 6-183 30-84 40-130 79-185 162-179 268-173 675 12 781 92 52 187 36 266-45 60-61 130-197 165-320 67-234 139-308 220-227 62 62 100 245 76 369-40 202-223 368-471 428-154 36-278 19-388-55-140-95-242-312-242-514 0-107 18-182 70-286 56-114 123-198 303-382l159-161-62-64c-66-67-252-294-339-415-89-124-131-244-131-384 0-125 36-215 116-290 129-120 285-140 626-80 97 17 183 31 192 31 16 0-16-43-212-290-89-112-161-245-183-340-20-88-15-215 14-299l24-73-31 6c-139 29-229 39-351 39-159 1-227-8-480-65-274-61-393-78-540-78-283 0-522 74-717 221-142 107-368 361-551 621-81 114-156 188-190 188-67 0-73-80-17-214 69-166 302-519 420-636 165-166 380-273 655-327 147-29 519-24 795 11 387 49 653 46 867-10 171-44 268-87 734-326 392-201 678-282 999-282 231 0 386 35 585 133 306 152 455 356 526 723 56 289-14 634-212 1046-105 221-194 361-393 626-102 134-197 267-213 295l-29 50 77 156c131 264 206 527 231 808 27 301-61 542-270 738-92 87-192 142-297 164-84 18-130 18-211 0zm439-2172c321-450 510-807 611-1158 48-168 60-262 53-424-6-160-38-301-88-387-87-153-283-281-532-348-401-108-878-15-1258 245-174 119-355 313-426 456-34 68-35 77-31 148 9 138 92 270 353 565 75 85 158 180 184 212 42 51 55 60 151 98 183 73 352 176 517 313 103 86 254 243 320 333 26 35 50 64 54 64s46-53 92-117z"/>
  <path d="m21900 21139c-32-13-87-66-106-101-18-35-18-101 1-137 16-32 87-71 128-71 63 0 148 66 163 126 18 72-22 150-93 180-37 16-58 17-93 3z"/>
 </g>
</svg>
