<svg width="6mm" height="6mm" viewBox="0 0 7 7" xmlns="http://www.w3.org/2000/svg"><g fill="#d5cece" stroke="#d5cece" stroke-linecap="round" stroke-linejoin="round" stroke-miterlimit="10" stroke-width=".859"><path d="M2.093 2.667l-.344.38a1.845 1.845 0 011.198-1.575 1.79 1.79 0 01.609-.108c.506 0 .996.22 1.34.603l.057.062.357-.334-.056-.063A2.282 2.282 0 003.56.868c-.263 0-.523.046-.774.136A2.34 2.34 0 001.265 3l-.304-.338-.31.289.874.966.874-.966zM6.396 3.329l-.874-.967-.874.967.31.288.34-.377a1.83 1.83 0 01-1.81 1.69 1.81 1.81 0 01-1.34-.602l-.057-.063-.358.334.056.063a2.288 2.288 0 001.695.765c.264 0 .523-.046.775-.137A2.345 2.345 0 005.78 3.281l.306.338z" stroke-width=".284329"/></g></svg>
