<?xml version="1.0" encoding="UTF-8" standalone="no"?>
<svg
   id="emoji"
   viewBox="0 0 72 72"
   version="1.1"
   sodipodi:docname="film-frames.svg"
   inkscape:version="1.1 (1:1.1+202105261517+ce6663b3b7)"
   xmlns:inkscape="http://www.inkscape.org/namespaces/inkscape"
   xmlns:sodipodi="http://sodipodi.sourceforge.net/DTD/sodipodi-0.dtd"
   xmlns="http://www.w3.org/2000/svg"
   xmlns:svg="http://www.w3.org/2000/svg">
  <defs
     id="defs50" />
  <sodipodi:namedview
     id="namedview48"
     pagecolor="#ffffff"
     bordercolor="#666666"
     borderopacity="1.0"
     inkscape:pageshadow="2"
     inkscape:pageopacity="0.0"
     inkscape:pagecheckerboard="0"
     showgrid="false"
     inkscape:zoom="8.8611111"
     inkscape:cx="24.996865"
     inkscape:cy="19.974922"
     inkscape:window-width="1920"
     inkscape:window-height="1055"
     inkscape:window-x="0"
     inkscape:window-y="1"
     inkscape:window-maximized="1"
     inkscape:current-layer="emoji" />
  <g
     id="color">
    <path
       fill="#D0CFCE"
       stroke="none"
       d="M42.3923,24.6798L60,24.9369l0.1694-7.6202L12,16.8286v8.1083l20.3445-0.2571 c0.5527,0,1.6146,0.5054,1.6146,1.0576l-0.2315,20.9094c0,0.5527-2.9051,0.3328-3.4578,0.3328L12,46.6875V55l48-0.258v-7.7624 H39.8702c-0.5528,0-1.6399-0.4474-1.6399-1.0001l0.4195-20.7302C38.6498,24.6971,41.8395,24.6798,42.3923,24.6798z"
       id="path2" />
    <rect
       x="38.244"
       y="24.9369"
       width="21.7425"
       height="22.0427"
       fill="#FFFFFF"
       stroke="none"
       id="rect4" />
    <rect
       x="12.0041"
       y="24.9369"
       width="21.9508"
       height="22.0427"
       fill="#FFFFFF"
       stroke="none"
       id="rect6" />
  </g>
  <g
     id="hair" />
  <g
     id="skin" />
  <g
     id="skin-shadow" />
  <g
     id="line">
    <rect
       x="12"
       y="17"
       width="48"
       height="38"
       fill="none"
       stroke="#000000"
       stroke-linecap="round"
       stroke-linejoin="round"
       stroke-miterlimit="10"
       stroke-width="2"
       id="rect12" />
    <polyline
       fill="none"
       stroke="#000000"
       stroke-linecap="round"
       stroke-linejoin="round"
       stroke-miterlimit="10"
       stroke-width="2"
       points="12,24.9369 33.9591,24.9369 33.9591,46.9796 12,46.9796"
       id="polyline14" />
    <polyline
       fill="none"
       stroke="#000000"
       stroke-linecap="round"
       stroke-linejoin="round"
       stroke-miterlimit="10"
       stroke-width="2"
       points="60,46.9796 38.2303,46.9796 38.2303,24.9369 60,24.9369"
       id="polyline16" />
    <circle
       cx="18.0947"
       cy="20.908"
       r="1.0794"
       fill="#000000"
       stroke="none"
       id="circle18" />
    <circle
       cx="24.0947"
       cy="20.908"
       r="1.0794"
       fill="#000000"
       stroke="none"
       id="circle20" />
    <circle
       cx="30.0947"
       cy="20.908"
       r="1.0794"
       fill="#000000"
       stroke="none"
       id="circle22" />
    <circle
       cx="36.0947"
       cy="20.908"
       r="1.0794"
       fill="#000000"
       stroke="none"
       id="circle24" />
    <circle
       cx="42.0947"
       cy="20.908"
       r="1.0794"
       fill="#000000"
       stroke="none"
       id="circle26" />
    <circle
       cx="48.0947"
       cy="20.908"
       r="1.0794"
       fill="#000000"
       stroke="none"
       id="circle28" />
    <circle
       cx="54.0947"
       cy="20.908"
       r="1.0794"
       fill="#000000"
       stroke="none"
       id="circle30" />
    <circle
       cx="18.0778"
       cy="51.0255"
       r="1.0794"
       fill="#000000"
       stroke="none"
       id="circle32" />
    <circle
       cx="24.0778"
       cy="51.0255"
       r="1.0794"
       fill="#000000"
       stroke="none"
       id="circle34" />
    <circle
       cx="30.0778"
       cy="51.0255"
       r="1.0794"
       fill="#000000"
       stroke="none"
       id="circle36" />
    <circle
       cx="36.0778"
       cy="51.0255"
       r="1.0794"
       fill="#000000"
       stroke="none"
       id="circle38" />
    <circle
       cx="42.0778"
       cy="51.0255"
       r="1.0794"
       fill="#000000"
       stroke="none"
       id="circle40" />
    <circle
       cx="48.0778"
       cy="51.0255"
       r="1.0794"
       fill="#000000"
       stroke="none"
       id="circle42" />
    <circle
       cx="54.0778"
       cy="51.0255"
       r="1.0794"
       fill="#000000"
       stroke="none"
       id="circle44" />
  </g>
</svg>
