<?xml version="1.0" encoding="UTF-8" standalone="no"?>
<!-- Created with Inkscape (http://www.inkscape.org/) -->

<svg
   width="6mm"
   height="6mm"
   viewBox="0 0 6 6"
   version="1.1"
   id="svg922"
   inkscape:version="1.1.1 (1:1.1+202109281949+c3084ef5ed)"
   sodipodi:docname="home.svg"
   xmlns:inkscape="http://www.inkscape.org/namespaces/inkscape"
   xmlns:sodipodi="http://sodipodi.sourceforge.net/DTD/sodipodi-0.dtd"
   xmlns="http://www.w3.org/2000/svg"
   xmlns:svg="http://www.w3.org/2000/svg">
  <sodipodi:namedview
     id="namedview924"
     pagecolor="#ffffff"
     bordercolor="#666666"
     borderopacity="1.0"
     inkscape:pageshadow="2"
     inkscape:pageopacity="0.0"
     inkscape:pagecheckerboard="0"
     inkscape:document-units="mm"
     showgrid="false"
     fit-margin-top="0"
     fit-margin-left="0"
     fit-margin-right="0"
     fit-margin-bottom="0"
     inkscape:zoom="4.3188552"
     inkscape:cx="-13.776799"
     inkscape:cy="13.197942"
     inkscape:window-width="1920"
     inkscape:window-height="1031"
     inkscape:window-x="0"
     inkscape:window-y="1"
     inkscape:window-maximized="1"
     inkscape:current-layer="layer1" />
  <defs
     id="defs919" />
  <g
     inkscape:label="Layer 1"
     inkscape:groupmode="layer"
     id="layer1"
     transform="translate(-25.494767,-59.550959)">
    <g
       id="Rounded"
       transform="matrix(0.27725724,0,0,0.27725724,-201.12361,-19.955999)"
       style="fill:none;fill-opacity:1;stroke:#d5cece;stroke-width:2.76362;stroke-miterlimit:4;stroke-dasharray:none;stroke-opacity:1">
      <g
         id="Action"
         transform="translate(100,100)"
         style="fill:none;fill-opacity:1;stroke:#d5cece;stroke-width:2.76362;stroke-miterlimit:4;stroke-dasharray:none;stroke-opacity:1">
        <g
           id="-Round-/-Action-/-home"
           transform="translate(714,186)"
           style="fill:none;fill-opacity:1;stroke:#d5cece;stroke-width:2.76362;stroke-miterlimit:4;stroke-dasharray:none;stroke-opacity:1">
          <g
             id="g8"
             style="fill:none;fill-opacity:1;stroke:#d5cece;stroke-width:2.76362;stroke-miterlimit:4;stroke-dasharray:none;stroke-opacity:1">
            <path
               d="m 12.177162,18.908892 v -5 h 4 v 5 c 0,0.55 0.45,1 1,1 h 3 c 0.55,0 1,-0.45 1,-1 v -7 h 1.7 c 0.46,0 0.68,-0.57 0.33,-0.87 l -8.36,-7.5299996 c -0.38,-0.34 -0.96,-0.34 -1.34,0 L 5.1471621,11.038892 c -0.34,0.3 -0.13,0.87 0.33,0.87 h 1.7 v 7 c 0,0.55 0.45,1 1,1 h 2.9999999 c 0.55,0 1,-0.45 1,-1 z"
               id="🔹Icon-Color"
               fill="#1d1d1d"
               style="fill:none;fill-opacity:1;stroke:#d5cece;stroke-width:2.76362;stroke-miterlimit:4;stroke-dasharray:none;stroke-opacity:1" />
          </g>
        </g>
      </g>
    </g>
  </g>
</svg>
