<svg width="16.9mm" height="16.9mm" viewBox="0 0 16.9 16.9" xmlns="http://www.w3.org/2000/svg"><g fill="#fff" stroke="#fff"><path d="M24 18h36v7H24z" transform="matrix(.243 0 0 .255 -.3 -.6)"/><path stroke-width=".89" d="M22.6 32.9h32v6.23h-32z" transform="matrix(.243 0 0 .255 -.3 -.6)"/><path stroke-width=".766" d="M21.1 47.9h27.6v5.36H21.1zM11.9 47.9h5.36v5.36H11.9z" transform="matrix(.243 0 0 .255 -.3 -.6)"/><path stroke-width=".89" d="M11.9 32.9h6.23v6.23H11.9z" transform="matrix(.243 0 0 .255 -.3 -.6)"/><path d="M12 18h7v7h-7z" transform="matrix(.243 0 0 .255 -.3 -.6)"/></g></svg>