<svg width="16.9mm" height="16.9mm" viewBox="0 0 16.9 16.9" xmlns="http://www.w3.org/2000/svg"><path d="M9 9.1c-.397.37-.888.735-1.19 1.08 0 0 .082.065 0 0-.277.704.661 1.14 1.32.45.688-.688 1.35-1.38 2.06-2.06.212-.212.212-.318 0-.529-.82-.794-1.64-1.61-2.43-2.43-.212-.212-1.23-1.51-1.44-1.28-.635.635.276 1.91.911 2.55.265.238.503.476.767.741-.026.027 0-.026 0 0l-4.47.106c-.185.004-.265-.08-.265-.265 0-1.4.077-3.22.104-4.62.124-.59.607-.544.967-.549 7.28.239 7.45.174 7.45.174 1.11 0 .973-.169.971.981l-.021 10c-.003 1.05-.018 1.15-.59 1.14l-7.31-.067c-1.2-.011-1.6-.415-1.6-1.1-.026-1.38 0-2.75 0-4.15 0-.238.08-.298.319-.291l4.44.132c.026.053-.053-.053 0 0z" fill="#fff"/></svg>