<?xml version="1.0" encoding="UTF-8" standalone="no"?>
<!-- Created with Inkscape (http://www.inkscape.org/) -->

<svg
   width="3.8256347mm"
   height="4.3169422mm"
   viewBox="0 0 3.8256347 4.3169422"
   version="1.1"
   id="svg886"
   inkscape:version="1.1.1 (1:1.1+202109281949+c3084ef5ed)"
   sodipodi:docname="password-field.svg"
   xmlns:inkscape="http://www.inkscape.org/namespaces/inkscape"
   xmlns:sodipodi="http://sodipodi.sourceforge.net/DTD/sodipodi-0.dtd"
   xmlns="http://www.w3.org/2000/svg"
   xmlns:svg="http://www.w3.org/2000/svg">
  <sodipodi:namedview
     id="namedview888"
     pagecolor="#ffffff"
     bordercolor="#666666"
     borderopacity="1.0"
     inkscape:pageshadow="2"
     inkscape:pageopacity="0.0"
     inkscape:pagecheckerboard="0"
     inkscape:document-units="mm"
     showgrid="false"
     inkscape:zoom="16"
     inkscape:cx="15.46875"
     inkscape:cy="4.6875"
     inkscape:window-width="1920"
     inkscape:window-height="1031"
     inkscape:window-x="0"
     inkscape:window-y="1"
     inkscape:window-maximized="1"
     inkscape:current-layer="layer1" />
  <defs
     id="defs883" />
  <g
     inkscape:label="Layer 1"
     inkscape:groupmode="layer"
     id="layer1"
     transform="translate(-103.08718,0.06959103)">
    <g
       id="g3658"
       transform="matrix(0.19198174,0,0,0.18607509,68.53966,-45.604979)">
      <g
         id="g1073"
         transform="translate(177.91565,244.81512)"
         style="fill:#d5cece;fill-opacity:1;stroke:#d5cece;stroke-width:2.2;stroke-miterlimit:4;stroke-dasharray:none;stroke-opacity:1">
        <path
           d="M 18,8 H 17 V 6 C 17,3.24 14.76,1 12,1 9.24,1 7,3.24 7,6 V 8 H 6 C 4.9,8 4,8.9 4,10 v 10 c 0,1.1 0.9,2 2,2 h 12 c 1.1,0 2,-0.9 2,-2 V 10 C 20,8.9 19.1,8 18,8 Z M 9,6 c 0,-1.66 1.34,-3 3,-3 1.66,0 3,1.34 3,3 V 8 H 9 Z m 9,14 H 6 V 10 h 12 z m -6,-3 c 1.1,0 2,-0.9 2,-2 0,-1.1 -0.9,-2 -2,-2 -1.1,0 -2,0.9 -2,2 0,1.1 0.9,2 2,2 z"
           id="🔹-Icon-Color"
           fill="#1d1d1d"
           style="fill:#d5cece;fill-opacity:1;stroke:#d5cece;stroke-width:2.2;stroke-miterlimit:4;stroke-dasharray:none;stroke-opacity:1" />
        <rect
           style="fill:#d5cece;fill-opacity:1;stroke:#d5cece;stroke-width:2.2;stroke-miterlimit:4;stroke-dasharray:none;stroke-opacity:1"
           id="rect921"
           width="12"
           height="10.012896"
           x="6"
           y="10" />
      </g>
      <rect
         style="fill:#f0f0f0;fill-opacity:1;stroke:none;stroke-width:1.21568;stroke-miterlimit:4;stroke-dasharray:none;stroke-opacity:1"
         id="rect3462"
         width="12.478685"
         height="10.468225"
         x="183.64796"
         y="254.65738" />
    </g>
  </g>
</svg>
