<svg width="16.9mm" height="16.9mm" viewBox="0 0 16.9 16.9" xmlns="http://www.w3.org/2000/svg"><g transform="matrix(.282 0 0 .276 -1.7 -1.2)" fill="none" stroke="#fff" stroke-linecap="round" stroke-linejoin="round" stroke-miterlimit="10" stroke-width="4.45"><circle cx="37.6" cy="35" r="5"/><circle cx="36" cy="34.9" r="10"/><path d="M31.1 19.7c-.239.99-1.31 1.58-2.24 1.17a4.12 4.12 0 01-.044-.02l-7.14-4.69-4.38 4.1 4.5 7.48c.736 1.62-1.08 2.07-1.08 2.07l-8.48 2.11.164 5 .033 1 8.36 1.73c.952.364 1.35 1.5.836 2.38l-.032.056-4.5 7.48 4.38 4.1 7.14-4.69.044-.02.033-.01c1.16-.378 2.39.345 2.68 1.53l1.79 7.43h6l1.89-7.82c.242-1 1.34-1.54 2.28-1.12l7.14 4.69 4.38-4.1-4.5-7.48-.032-.057a1.658 1.658 0 01.836-2.38l8.36-1.73.033-1 .165-5-8.48-2.11s-1.81-.45-1.08-2.07l4.5-7.48-4.38-4.1-7.14 4.69a1.652 1.652 0 01-2.28-1.12l-1.89-7.82h-6l-1.88 7.79"/></g></svg>