<?xml version="1.0" encoding="UTF-8" standalone="no"?>
<!-- Created with Inkscape (http://www.inkscape.org/) -->

<svg
   width="3.8256347mm"
   height="4.3169422mm"
   viewBox="0 0 3.8256347 4.3169422"
   version="1.1"
   id="svg886"
   sodipodi:docname="username-field.svg"
   inkscape:version="1.1.1 (1:1.1+202109281949+c3084ef5ed)"
   xmlns:inkscape="http://www.inkscape.org/namespaces/inkscape"
   xmlns:sodipodi="http://sodipodi.sourceforge.net/DTD/sodipodi-0.dtd"
   xmlns="http://www.w3.org/2000/svg"
   xmlns:svg="http://www.w3.org/2000/svg">
  <sodipodi:namedview
     id="namedview888"
     pagecolor="#ffffff"
     bordercolor="#666666"
     borderopacity="1.0"
     inkscape:pageshadow="2"
     inkscape:pageopacity="0.0"
     inkscape:pagecheckerboard="0"
     inkscape:document-units="mm"
     showgrid="false"
     inkscape:zoom="16"
     inkscape:cx="15.46875"
     inkscape:cy="4.6875"
     inkscape:window-width="1920"
     inkscape:window-height="1031"
     inkscape:window-x="0"
     inkscape:window-y="1"
     inkscape:window-maximized="1"
     inkscape:current-layer="layer1" />
  <defs
     id="defs883" />
  <g
     inkscape:label="Layer 1"
     inkscape:groupmode="layer"
     id="layer1"
     transform="translate(-103.08718,0.06959103)">
    <path
       fill-rule="evenodd"
       clip-rule="evenodd"
       d="m 105,0.454374 c -0.36733,0 -0.66512,0.325239 -0.66512,0.726445 0,0.401209 0.29779,0.726448 0.66512,0.726448 0.36733,0 0.66512,-0.325239 0.66512,-0.726448 0,-0.401206 -0.29779,-0.726445 -0.66512,-0.726445 z m 0.62757,1.573578 c 0.22577,-0.199774 0.3701,-0.50505 0.3701,-0.847133 0,-0.601805 -0.44667,-1.08967 -0.99767,-1.08967 -0.551,0 -0.99767,0.487865 -0.99767,1.08967 0,0.342083 0.14432,0.647359 0.3701,0.847133 -0.64637,0.257847 -1.12214,0.902644 -1.1925,1.677762 -0.0199,0.2187 0.14481,0.380897 0.32356,0.380897 h 2.99302 c 0.17875,0 0.34342,-0.162197 0.32356,-0.380897 -0.0704,-0.775118 -0.54614,-1.419915 -1.1925,-1.677762 z M 105,2.270493 c -0.77027,0 -1.40478,0.635735 -1.48739,1.452893 h 2.97479 C 106.40478,2.906228 105.77027,2.270493 105,2.270493 Z"
       fill="#293644"
       id="path2"
       style="display:inline;fill:#d5cece;fill-opacity:1;stroke:#d5cece;stroke-width:0.182298;stroke-miterlimit:4;stroke-dasharray:none;stroke-opacity:1" />
  </g>
</svg>
