<?xml version="1.0" encoding="UTF-8"?>
<svg width="1350pt" height="1125pt" version="1.0" viewBox="0 0 1350 1125" xmlns="http://www.w3.org/2000/svg">
 <metadata>Created by potrace 1.16, written by Peter Selinger 2001-2019</metadata>
 <g transform="matrix(.1 0 0 -.1 -1408 2646)">
  <path d="m21930 26444c-90-24-161-65-231-134-100-100-149-217-149-355 0-124 38-226 122-327l49-59-59-92c-55-87-124-206-308-532-43-77-128-214-189-305-103-153-406-579-458-643l-22-27-50 16c-35 12-86 17-170 17-107 0-130-3-205-28-50-17-117-51-163-82l-79-52-71 56c-40 31-157 129-262 218-104 88-226 190-270 225-125 100-634 529-809 681-4 4 3 27 17 51 126 216 52 513-165 658-248 166-595 74-726-193-43-86-55-154-50-263 4-80 10-103 41-169 67-140 202-252 346-285 75-18 222-8 289 19l52 21 163-117c210-150 296-217 497-388 91-77 201-169 245-205 44-35 148-121 230-190 83-69 194-161 247-203l96-78-28-62c-37-78-60-167-60-229 0-26-3-48-6-48-10 0-1277-185-1824-266-278-41-539-84-580-95-245-66-422-252-466-489-26-134-15-217 61-495 273-990 356-1309 439-1685 56-254 67-325 106-675 62-565 118-821 222-1029 77-155 190-286 246-286 71 0 97 82 89 279-7 164-34 314-121 671-35 146-74 314-85 373-65 335-301 2153-301 2313 0 116 19 204 61 289 64 130 190 235 354 294 53 19 842 201 2e3 462 2104 474 1954 439 2337 537 454 117 625 142 975 142 219 1 309 12 418 54 179 68 217 151 95 209-105 51-228 44-548-33-196-46-1011-212-1330-269-314-57-712-112-777-109l-54 3-24 59c-30 74-79 148-139 209l-47 49 100 156c55 87 145 222 200 302 203 292 338 498 401 614 64 116 163 279 273 449l57 87 77-6c230-19 445 121 524 342 31 86 32 226 1 315-87 252-352 399-602 333z"/>
  <path d="m22834 23095c-87-19-159-59-225-124-138-139-195-375-186-771 5-241 25-383 82-580 99-346 230-502 330-394 77 83 50 307-80 659-83 223-105 309-112 430-12 221 79 401 242 481 52 25 71 29 140 28 331-3 474-326 365-826-90-413-368-849-725-1137-232-187-481-316-850-439-195-65-287-85-412-85-93-1-106 1-159 28-49 25-63 39-86 84-24 45-28 65-28 130 0 170 82 342 233 493 87 87 277 230 405 304 216 126 322 207 322 249 0 8-11 22-25 31-28 18-51 17-235-11-69-11-148-15-230-13-111 3-132 6-183 30-84 40-130 79-185 162-179 268-173 675 12 781 92 52 187 36 266-45 60-61 130-197 165-320 67-234 139-308 220-227 62 62 100 245 76 369-40 202-223 368-471 428-154 36-278 19-388-55-140-95-242-312-242-514 0-107 18-182 70-286 56-114 123-198 303-382l159-161-62-64c-66-67-252-294-339-415-89-124-131-244-131-384 0-125 36-215 116-290 129-120 285-140 626-80 97 17 183 31 192 31 16 0-16-43-212-290-89-112-161-245-183-340-20-88-15-215 14-299l24-73-31 6c-139 29-229 39-351 39-159 1-227-8-480-65-274-61-393-78-540-78-283 0-522 74-717 221-142 107-368 361-551 621-81 114-156 188-190 188-67 0-73-80-17-214 69-166 302-519 420-636 165-166 380-273 655-327 147-29 519-24 795 11 387 49 653 46 867-10 171-44 268-87 734-326 392-201 678-282 999-282 231 0 386 35 585 133 306 152 455 356 526 723 56 289-14 634-212 1046-105 221-194 361-393 626-102 134-197 267-213 295l-29 50 77 156c131 264 206 527 231 808 27 301-61 542-270 738-92 87-192 142-297 164-84 18-130 18-211 0zm439-2172c321-450 510-807 611-1158 48-168 60-262 53-424-6-160-38-301-88-387-87-153-283-281-532-348-401-108-878-15-1258 245-174 119-355 313-426 456-34 68-35 77-31 148 9 138 92 270 353 565 75 85 158 180 184 212 42 51 55 60 151 98 183 73 352 176 517 313 103 86 254 243 320 333 26 35 50 64 54 64s46-53 92-117z"/>
  <path d="m21900 21139c-32-13-87-66-106-101-18-35-18-101 1-137 16-32 87-71 128-71 63 0 148 66 163 126 18 72-22 150-93 180-37 16-58 17-93 3z"/>
  <path d="m18428 17920c-9-6-24-30-34-55-15-39-16-62-8-168 5-67 7-543 5-1057-3-987 1-1111 40-1200 41-93 132-160 217-160 53 0 81 20 101 73 16 40 13 171-4 242-33 136-38 328-31 1270 6 898 6 921-13 951-50 82-208 142-273 104z"/>
  <path d="m15833 17800c-17-10-37-29-43-41-7-11-23-98-36-193-41-285-180-877-275-1173-87-267-187-484-308-665-91-136-90-135-142-107-78 44-166 190-229 378-66 197-169 666-255 1161-49 284-69 360-117 440-97 160-300 189-339 48-13-51 3-139 47-248 45-112 81-254 249-987 81-354 130-514 204-667 114-234 281-427 419-487 28-12 67-19 111-19 118 0 166 46 316 300 89 151 213 404 274 560 97 246 180 544 306 1098 94 417 100 451 80 517-10 35-26 62-46 79-27 23-39 26-107 26-59 0-85-5-109-20z"/>
  <path d="m22410 17753c-49-18-89-83-118-190-20-75-94-206-245-433-263-396-442-582-624-650-31-11-57-19-58-18-2 3 11 216 35 548 23 330-18 591-102 651-40 29-131 36-181 16-70-30-67 18-67-982 0-550 4-933 10-993 22-200 72-338 143-395 31-26 46-31 87-30 60 1 97 22 116 68 20 49 18 105-11 244-30 147-47 319-43 419l3 73 158 69c87 39 172 70 188 70 63 0 328-80 441-134 143-68 290-187 399-324 72-90 115-166 173-305 24-60 57-127 73-149 97-141 288-121 331 34 9 34 6 46-63 185-226 457-546 757-987 923-76 29-86 35-75 49 6 8 53 63 102 121 239 278 436 573 534 796 31 72 31 72 15 125-21 72-38 102-81 150-55 60-103 80-153 62z"/>
  <path d="m23485 17611c-73-34-105-93-105-196 0-79 14-109 76-164 60-52 117-58 204-20 82 36 120 88 120 162 0 73-40 157-75 157-6 0-34 18-64 40-60 45-93 50-156 21z"/>
  <path d="m24425 17026c-17-7-36-20-42-28-11-13-81-481-115-763-8-68-13-233-13-435v-325l26-50c30-59 74-91 135-101 65-9 114 12 137 58 17 35 18 50 6 236-13 215-3 441 26 592 12 61 20 79 42 95 16 11 82 76 148 144 192 197 306 272 419 273 69 1 97-16 127-79 34-71 38-249 9-438-56-373-69-469-75-575-8-131 6-251 33-290 40-55 134-76 208-45 52 22 70 72 83 240 7 77 25 248 41 379 56 449 60 595 20 752-26 99-63 168-124 229-63 63-138 101-233 117-174 29-356-47-561-237-59-55-72-63-68-44 33 156 34 200 4 241-41 59-159 86-233 54z"/>
  <path d="m17197 17005c-22-7-49-22-60-34-12-11-44-25-70-31-75-16-113-35-181-89-219-174-372-424-422-688-22-119-15-327 15-431 53-183 168-330 315-402 113-56 202-73 356-67 200 7 304 52 447 197 130 131 237 314 283 485 28 102 38 317 20 419-31 178-126 353-267 492-134 132-313 194-436 149zm261-399c100-135 112-162 123-272 35-377-152-714-426-765-149-28-295 34-354 150-60 116-67 297-19 436 50 142 122 258 210 341 69 66 105 84 187 95 97 14 158 36 183 69 13 16 25 29 28 29 3 1 34-37 68-83z"/>
  <path d="m26867 17005c-22-7-49-22-60-34-12-11-44-25-70-31-104-23-180-73-303-201-211-221-317-476-316-764 2-440 256-715 661-715 203 1 326 48 462 177 221 212 339 478 339 767 0 255-97 476-289 659-137 130-302 186-424 142zm273-417c104-141 113-173 108-368-4-139-8-165-36-248-109-332-374-491-620-371-78 38-123 95-154 194-58 185 2 427 154 627 85 112 150 154 257 169 97 14 158 36 183 69 13 16 25 29 28 29s39-45 80-101z"/>
  <path d="m19837 16850c-211-33-410-209-537-475-21-44-46-106-56-137-10-32-23-58-30-58-24 0-72-57-84-99-16-60 5-129 47-156 28-18 32-26 41-102 29-215 122-358 291-447 206-108 530-112 790-10 130 51 287 173 322 249 34 73 18 189-29 214-54 29-117 4-258-101-169-125-291-172-449-172-119-1-194 19-257 67-66 51-91 105-96 208l-4 86 128 17c217 30 419 90 537 159 79 46 154 124 188 192 30 61 31 69 27 162-3 79-9 109-30 155-31 67-104 149-166 185-94 55-252 82-375 63zm173-286c45-18 70-55 70-104 0-117-176-217-438-248-70-8-72-8-66 12 21 68 85 177 138 234 102 108 201 144 296 106z"/>
  <path d="m23453 16831c-63-39-60-14-73-636-7-313-11-624-9-690 4-113 6-122 33-163 57-84 173-139 233-110 41 20 52 64 52 218 0 74 6 397 13 717 12 582 12 583-9 610-31 43-78 65-146 70-50 3-68 0-94-16z"/>
 </g>
</svg>
